<svg xmlns="http://www.w3.org/2000/svg" width="16" height="17" viewBox="0 0 16 17" fill="none">
  <path d="M7.85376 0.783217C8.02976 0.607417 8.27577 0.607417 8.45078 0.783217L15.8688 8.20122C16.0448 8.37692 16.0448 8.62302 15.8688 8.79882L8.45078 16.2168C8.27577 16.3926 8.02976 16.3926 7.85376 16.2168L7.60776 15.9707C7.43176 15.7949 7.43176 15.5488 7.60776 15.373L13.8648 9.08012H0.681763C0.435763 9.08012 0.259766 8.90432 0.259766 8.65822V8.30662C0.259766 8.09572 0.435763 7.88472 0.681763 7.88472H13.8648L7.60776 1.62692C7.43176 1.45122 7.43176 1.20512 7.60776 1.02932L7.85376 0.783217Z" fill="#08068D"/>
</svg>