<svg xmlns="http://www.w3.org/2000/svg" width="160" height="54" viewBox="0 0 160 54" fill="none">
  <path d="M160 20.8643H142.039V26.7936H160V20.8643Z" fill="#0762C7"/>
  <path d="M153.294 1.89545L137.74 10.8311L140.719 15.966L156.274 7.03041L153.294 1.89545Z" fill="#26D07C"/>
  <path d="M140.723 31.6873L137.743 36.8223L153.298 45.7579L156.277 40.6229L140.723 31.6873Z" fill="#FF9E1B"/>
  <path d="M54.2071 25.0165C54.2071 29.3105 50.7081 32.7908 46.3937 32.7908C42.0792 32.7908 38.5802 29.3105 38.5802 25.0165V8.93555H32.6211V25.0165C32.6211 32.5857 38.7875 38.7213 46.3948 38.7213C54.0021 38.7213 60.1674 32.5857 60.1674 25.0165V8.93555H54.2082V25.0165H54.2071Z" fill="#08068D"/>
  <path d="M14.9671 8.93561H9.008V14.865H14.9671V14.8923C19.9276 14.8923 23.9477 18.8934 23.9477 23.8279C23.9477 28.7624 19.9264 32.7635 14.9671 32.7635C10.0079 32.7635 5.98663 28.7635 5.98663 23.8279H5.95914V0H0V23.8279C0 32.0524 6.70131 38.7202 14.9671 38.7202C23.233 38.7202 29.9354 32.0524 29.9354 23.8279C29.9354 15.6034 23.2341 8.93561 14.9671 8.93561Z" fill="#08068D"/>
  <path d="M88.5829 8.93561H82.6237V14.865H88.5829V14.8923C93.5421 14.8923 97.5634 18.8934 97.5634 23.8279C97.5634 28.7624 93.5433 32.7635 88.5829 32.7635C83.6224 32.7635 79.6024 28.7635 79.6024 23.8279H79.5749V0H73.6157V23.8279C73.6157 32.0524 80.317 38.7202 88.5829 38.7202C96.8487 38.7202 103.55 32.0524 103.55 23.8279C103.55 15.6034 96.8487 8.93561 88.5829 8.93561Z" fill="#08068D"/>
  <path d="M69.8708 0H63.9116V37.5453H69.8708V0Z" fill="#08068D"/>
  <path d="M118.091 26.7931H135.755C135.949 25.8347 136.052 24.8432 136.052 23.8279C136.052 15.6034 129.351 8.93555 121.085 8.93555C112.819 8.93555 106.118 15.6034 106.118 23.8279C106.118 32.0524 112.819 38.7202 121.085 38.7202H127.044V32.7908H121.085V32.7635C116.125 32.7635 112.105 28.7623 112.105 23.8279C112.105 18.8934 116.125 14.8922 121.085 14.8922C124.999 14.8922 128.319 17.388 129.549 20.8626H118.093V26.792L118.091 26.7931Z" fill="#08068D"/>
  <path d="M2.28378 50.6141C1.46831 50.6141 0.707812 50.3794 0 49.9099L0.353906 49.3013C0.99758 49.7138 1.64469 49.9201 2.29524 49.9201C2.68121 49.9201 2.99389 49.8369 3.23326 49.6694C3.47263 49.503 3.59289 49.2876 3.59289 49.0244C3.59289 48.7611 3.48752 48.5731 3.27678 48.4375C3.06604 48.303 2.70297 48.1959 2.18758 48.1173C0.850978 47.9178 0.182107 47.4164 0.182107 46.613C0.182107 46.172 0.373377 45.813 0.755916 45.5361C1.13846 45.258 1.63324 45.1201 2.24141 45.1201C2.94922 45.1201 3.58488 45.2911 4.15067 45.6318L3.87121 46.2506C3.32832 45.9452 2.78086 45.7913 2.2311 45.7913C1.83825 45.7913 1.52901 45.8631 1.30338 46.0056C1.07775 46.148 0.965511 46.3429 0.965511 46.5925C0.965511 46.8204 1.06859 47.0039 1.27589 47.1429C1.48434 47.2808 1.81534 47.3868 2.27348 47.4574C3.04543 47.5782 3.5906 47.7583 3.909 47.9965C4.22626 48.2346 4.3866 48.5811 4.3866 49.0369C4.3866 49.4928 4.19304 49.8871 3.80707 50.1788C3.42109 50.4705 2.91371 50.6164 2.28493 50.6164" fill="#08068D"/>
  <path d="M7.88105 50.5612C7.18699 50.5612 6.64066 50.3447 6.2398 49.9105C5.83894 49.4763 5.63965 48.8905 5.63965 48.1498V45.2051H6.43221V48.1282C6.43221 48.6683 6.57195 49.09 6.85026 49.3931C7.12857 49.6951 7.51913 49.8467 8.01964 49.8467C8.52015 49.8467 8.92903 49.6757 9.24743 49.3339C9.56469 48.992 9.72503 48.5658 9.72503 48.0541V45.2062H10.5176V50.4769H9.77772C9.77772 50.0358 9.78573 49.7088 9.79948 49.4957H9.76741C9.60935 49.8296 9.36311 50.0917 9.02753 50.2797C8.69195 50.4678 8.30941 50.5623 7.87991 50.5623" fill="#08068D"/>
  <path d="M14.0988 45.1191C14.8707 45.1191 15.4823 45.2832 15.9324 45.6103C16.3826 45.9374 16.6082 46.4491 16.6082 47.1465V50.4753H15.9004C15.9004 50.0058 15.9084 49.657 15.9221 49.4291H15.9004C15.7286 49.7778 15.456 50.0536 15.0815 50.2565C14.7058 50.4593 14.2969 50.5607 13.8525 50.5607C13.2661 50.5607 12.7794 50.4137 12.3888 50.1174C11.9994 49.8223 11.8047 49.4075 11.8047 48.8741C11.8047 48.3408 12.0086 47.9123 12.4151 47.6103C12.8229 47.3083 13.3337 47.1567 13.9487 47.1567C14.6634 47.1567 15.2853 47.3026 15.8145 47.5944V47.1465C15.8145 46.6986 15.6576 46.3647 15.3426 46.1436C15.0276 45.9237 14.5993 45.8132 14.0564 45.8132C13.541 45.8132 12.9947 45.9385 12.4151 46.1869L12.201 45.5465C12.8366 45.2616 13.4688 45.1191 14.0988 45.1191ZM13.9808 49.8884C14.4744 49.8884 14.8971 49.7425 15.251 49.4508C15.6049 49.159 15.7996 48.7681 15.8351 48.277C15.3128 47.9647 14.7264 47.8075 14.0759 47.8075C13.6406 47.8075 13.2845 47.8998 13.0096 48.0844C12.7335 48.269 12.5961 48.5254 12.5961 48.8525C12.5961 49.1795 12.7301 49.4257 12.9981 49.6103C13.2661 49.7949 13.5937 49.8872 13.9785 49.8872" fill="#08068D"/>
  <path d="M21.0578 52.9826V45.2048H21.8515C21.8515 45.411 21.8366 45.77 21.808 46.2817H21.8297C21.9511 45.9546 22.2031 45.6754 22.5857 45.4441C22.9682 45.2128 23.4091 45.0977 23.9108 45.0977C24.6759 45.0977 25.3047 45.3518 25.7983 45.86C26.2908 46.3683 26.537 47.0281 26.537 47.8384C26.537 48.6487 26.2885 49.3187 25.7914 49.8236C25.2944 50.3284 24.6633 50.5814 23.8993 50.5814C23.4057 50.5814 22.9728 50.4675 22.6017 50.2395C22.2295 50.0128 21.9763 49.7347 21.84 49.4076H21.8183C21.84 49.7062 21.8504 50.1336 21.8504 50.6885V52.9826H21.0566H21.0578ZM23.7814 49.8566C24.3609 49.8566 24.8328 49.672 25.197 49.3016C25.5624 48.9324 25.7445 48.4481 25.7445 47.8509C25.7445 47.2538 25.5624 46.7569 25.197 46.3843C24.8328 46.0116 24.3678 45.8247 23.8031 45.8247C23.2385 45.8247 22.754 46.0093 22.3932 46.3797C22.0325 46.7501 21.8515 47.2333 21.8515 47.8304C21.8515 48.4276 22.0325 48.9244 22.3932 49.2971C22.754 49.6709 23.2167 49.8566 23.7814 49.8566Z" fill="#08068D"/>
  <path d="M27.8887 50.4753V45.2046H28.64C28.64 45.6593 28.632 45.9978 28.6182 46.2177H28.64C28.7614 45.9112 28.9744 45.6525 29.278 45.4394C29.5815 45.2251 29.9365 45.1191 30.3454 45.1191C30.5951 45.1191 30.8379 45.159 31.0738 45.2365L30.8482 45.9408C30.6982 45.8838 30.5126 45.8553 30.2916 45.8553C29.8266 45.8553 29.4417 46.0308 29.1382 46.383C28.8347 46.7351 28.6835 47.1852 28.6835 47.7322V50.4741H27.8898L27.8887 50.4753Z" fill="#08068D"/>
  <path d="M34.4516 50.5824C33.6579 50.5824 33.0051 50.3283 32.4943 49.82C31.9823 49.3118 31.728 48.6553 31.728 47.8519C31.728 47.0485 31.9892 46.3796 32.5103 45.8679C33.0314 45.3562 33.6968 45.0998 34.5043 45.0998C35.3118 45.0998 35.952 45.3539 36.4674 45.8622C36.9816 46.3704 37.2393 47.0269 37.2393 47.8303C37.2393 48.6337 36.9771 49.3026 36.4514 49.8155C35.9268 50.3271 35.2591 50.5836 34.4516 50.5836M34.4734 49.869C35.038 49.869 35.5076 49.6787 35.8833 49.2981C36.2578 48.9175 36.4456 48.4365 36.4456 47.8531C36.4456 47.2696 36.2589 46.7773 35.8879 46.3967C35.5168 46.016 35.0483 45.8257 34.4825 45.8257C33.9168 45.8257 33.4506 46.0138 33.0784 46.391C32.7061 46.7682 32.5206 47.2479 32.5206 47.8314C32.5206 48.4149 32.7073 48.9095 33.0784 49.2935C33.4495 49.6776 33.9145 49.8702 34.4722 49.8702M33.9465 44.3967L34.7391 43.0098H35.7046L34.6967 44.3967H33.9454H33.9465Z" fill="#08068D"/>
  <path d="M40.8206 47.7339L42.8043 50.4757H41.8388L41.1745 49.515C40.6889 48.7971 40.4094 48.3777 40.3384 48.2569H40.3166C40.2021 48.4484 39.9204 48.8689 39.4691 49.515L38.8037 50.4757H37.8496L39.8116 47.7441L37.9779 45.2051H38.9537L39.7039 46.315C39.9765 46.6923 40.1804 46.9943 40.3155 47.2222H40.3373C40.4793 46.9806 40.6831 46.674 40.9477 46.3048L41.6991 45.2062H42.6531L40.8206 47.735V47.7339Z" fill="#08068D"/>
  <path d="M44.2087 44.17C44.0438 44.17 43.9086 44.1188 43.801 44.015C43.6933 43.9125 43.6406 43.7791 43.6406 43.615C43.6406 43.4509 43.6933 43.3165 43.801 43.2093C43.9086 43.1022 44.0438 43.0498 44.2087 43.0498C44.3736 43.0498 44.5202 43.1034 44.6268 43.2093C44.7344 43.3165 44.7882 43.4509 44.7882 43.615C44.7882 43.7791 44.7344 43.9125 44.6268 44.015C44.5202 44.1188 44.3794 44.17 44.2087 44.17ZM43.8227 45.2048H44.6153V50.4754H43.8227V45.2048Z" fill="#08068D"/>
  <path d="M52.6039 45.1191C53.2693 45.1191 53.7893 45.3208 54.1638 45.722C54.5384 46.1243 54.7262 46.6622 54.7262 47.3379V50.4741H53.9336V47.4337C53.9336 46.9425 53.8099 46.5539 53.5637 46.2656C53.3174 45.9773 52.9647 45.8337 52.5077 45.8337C52.0507 45.8337 51.6762 45.9898 51.3864 46.3032C51.0978 46.6166 50.9523 47.0109 50.9523 47.4872V50.4753H50.1586V47.4565C50.1586 46.9516 50.0315 46.555 49.7772 46.2667C49.5241 45.9784 49.1679 45.8348 48.7109 45.8348C48.2539 45.8348 47.892 45.9898 47.6057 46.2986C47.3205 46.6075 47.1773 47.0052 47.1773 47.4884V50.4764H46.3848V45.2057H47.1361C47.1361 45.5966 47.1143 45.9453 47.072 46.2508H47.0937C47.2083 45.902 47.4259 45.6274 47.7477 45.4246C48.0684 45.2217 48.4303 45.1203 48.83 45.1203C49.7669 45.1203 50.3739 45.5191 50.6534 46.3157C50.8321 45.918 51.0966 45.6183 51.4471 45.42C51.7976 45.2206 52.1824 45.1214 52.6039 45.1214" fill="#08068D"/>
  <path d="M58.2113 45.1191C58.9832 45.1191 59.5948 45.2832 60.0449 45.6103C60.495 45.9374 60.7207 46.4491 60.7207 47.1465V50.4753H60.0128C60.0128 50.0058 60.0197 49.657 60.0346 49.4291H60.0128C59.8411 49.7778 59.5685 50.0536 59.1928 50.2565C58.8171 50.4593 58.4082 50.5607 57.9639 50.5607C57.3775 50.5607 56.8907 50.4137 56.5001 50.1174C56.1107 49.8223 55.916 49.4075 55.916 48.8741C55.916 48.3408 56.1199 47.9123 56.5265 47.6103C56.9342 47.3083 57.445 47.1567 58.0601 47.1567C58.7748 47.1567 59.3967 47.3026 59.9258 47.5944V47.1465C59.9258 46.6986 59.7689 46.3647 59.4539 46.1436C59.139 45.9237 58.7106 45.8132 58.1677 45.8132C57.6535 45.8132 57.106 45.9385 56.5265 46.1869L56.3123 45.5465C56.948 45.2616 57.5802 45.1191 58.2101 45.1191M58.0921 49.8884C58.5858 49.8884 59.0084 49.7425 59.3623 49.4508C59.7162 49.159 59.9098 48.7681 59.9464 48.277C59.4242 47.9647 58.8377 47.8075 58.1872 47.8075C57.752 47.8075 57.3958 47.8998 57.1209 48.0844C56.8449 48.269 56.7074 48.5254 56.7074 48.8525C56.7074 49.1795 56.8414 49.4257 57.1094 49.6103C57.3775 49.7949 57.705 49.8872 58.091 49.8872" fill="#08068D"/>
  <path d="M69.9534 47.7119C69.9534 47.7974 69.9454 47.9398 69.9317 48.1393H65.568C65.6035 48.6726 65.7947 49.0965 66.1418 49.4088C66.4888 49.7222 66.9298 49.8783 67.4658 49.8783C68.1804 49.8783 68.7806 49.6515 69.2674 49.1957L69.6854 49.729C69.1345 50.2977 68.3912 50.5826 67.4555 50.5826C66.6549 50.5826 66.0078 50.3307 65.5141 49.8247C65.0216 49.3199 64.7754 48.6578 64.7754 47.8395C64.7754 47.0213 65.0251 46.3786 65.5256 45.8657C66.0261 45.3541 66.6698 45.0977 67.4566 45.0977C68.2434 45.0977 68.8195 45.3256 69.2731 45.7803C69.7278 46.235 69.9546 46.8789 69.9546 47.7108M67.4234 45.8008C66.9298 45.8008 66.5174 45.9501 66.1853 46.2487C65.8531 46.5472 65.6504 46.9563 65.5794 47.476H69.2147C69.1929 46.9358 69.0246 46.521 68.7107 46.2327C68.3958 45.9444 67.9674 45.8008 67.4245 45.8008" fill="#08068D"/>
  <path d="M71.2178 50.4753V45.2046H71.9691C71.9691 45.518 71.9588 45.8656 71.937 46.2496H71.9691C72.126 45.8941 72.3803 45.6171 72.7296 45.4177C73.0801 45.2183 73.4832 45.1191 73.9414 45.1191C74.6561 45.1191 75.2058 45.3254 75.5929 45.7379C75.9789 46.1505 76.1713 46.7305 76.1713 47.477V50.4753H75.3788V47.5408C75.3788 47.0006 75.2447 46.5801 74.9767 46.2815C74.7087 45.983 74.317 45.8337 73.8028 45.8337C73.2885 45.8337 72.8522 46.0046 72.5154 46.3465C72.1799 46.6884 72.0115 47.1146 72.0115 47.6263V50.4753H71.2189H71.2178Z" fill="#08068D"/>
  <path d="M82.6375 47.7119C82.6375 47.7974 82.6295 47.9398 82.6157 48.1393H78.252C78.2875 48.6726 78.4788 49.0965 78.8258 49.4088C79.1729 49.7222 79.6138 49.8783 80.1498 49.8783C80.8645 49.8783 81.4647 49.6515 81.9515 49.1957L82.3695 49.729C81.8186 50.2977 81.0753 50.5826 80.1395 50.5826C79.339 50.5826 78.6918 50.3307 78.1982 49.8247C77.7057 49.3199 77.4595 48.6578 77.4595 47.8395C77.4595 47.0213 77.7092 46.3786 78.2097 45.8657C78.7102 45.3541 79.3538 45.0977 80.1395 45.0977C80.9252 45.0977 81.5036 45.3256 81.9572 45.7803C82.4119 46.235 82.6386 46.8789 82.6386 47.7108M80.1086 45.8008C79.615 45.8008 79.2015 45.9501 78.8705 46.2487C78.5372 46.5472 78.3357 46.9563 78.2646 47.476H81.8999C81.8781 46.9358 81.7098 46.521 81.396 46.2327C81.081 45.9444 80.6526 45.8008 80.1098 45.8008" fill="#08068D"/>
  <path d="M83.9023 50.4753V45.2046H84.6537C84.6537 45.6593 84.6457 45.9978 84.6319 46.2177H84.6537C84.7739 45.9112 84.987 45.6525 85.2916 45.4394C85.5951 45.2251 85.9513 45.1191 86.3591 45.1191C86.6088 45.1191 86.8527 45.159 87.0886 45.2365L86.863 45.9408C86.713 45.8838 86.5274 45.8553 86.3052 45.8553C85.8402 45.8553 85.4566 46.0308 85.153 46.383C84.8495 46.7351 84.6972 47.1852 84.6972 47.7322V50.4741H83.9046L83.9023 50.4753Z" fill="#08068D"/>
  <path d="M90.5725 53.1213C89.6642 53.1213 88.8499 52.915 88.1272 52.5025L88.4387 51.8403C89.1752 52.2027 89.883 52.3851 90.5622 52.3851C91.1188 52.3851 91.5609 52.2369 91.8862 51.9418C92.2114 51.6466 92.3809 51.2352 92.3958 50.7099C92.4176 50.0842 92.4348 49.65 92.4485 49.4084H92.4267C92.2847 49.7503 92.0282 50.0295 91.6605 50.246C91.2929 50.4626 90.8691 50.572 90.3892 50.572C89.6104 50.572 88.9747 50.3178 88.4811 49.8096C87.9875 49.3013 87.7412 48.6483 87.7412 47.8517C87.7412 47.0552 87.9863 46.3794 88.4754 45.8677C88.9656 45.3549 89.6001 45.0996 90.3789 45.0996C90.8645 45.0996 91.2975 45.2113 91.6766 45.4358C92.0545 45.6603 92.3122 45.9463 92.4485 46.295H92.4703C92.4565 46.0535 92.4485 45.6899 92.4485 45.2067H93.1987V50.5515C93.1987 51.3549 92.9662 51.9851 92.5012 52.4398C92.0373 52.8945 91.3937 53.1224 90.5713 53.1224M90.474 49.8472C91.0604 49.8472 91.53 49.6626 91.8839 49.2922C92.2378 48.923 92.4153 48.4352 92.4153 47.8301C92.4153 47.225 92.2343 46.7486 91.8735 46.3794C91.5128 46.0102 91.0466 45.8244 90.474 45.8244C89.9013 45.8244 89.4363 46.0113 89.0744 46.3851C88.7136 46.7589 88.5326 47.2409 88.5326 47.8301C88.5326 48.4193 88.7124 48.9047 89.0744 49.2819C89.4351 49.6592 89.9013 49.8472 90.474 49.8472Z" fill="#08068D"/>
  <path d="M95.3542 44.17C95.1893 44.17 95.0541 44.1188 94.9465 44.015C94.8388 43.9125 94.7861 43.7791 94.7861 43.615C94.7861 43.4509 94.8388 43.3165 94.9465 43.2093C95.0541 43.1022 95.1893 43.0498 95.3542 43.0498C95.5191 43.0498 95.6657 43.1034 95.7723 43.2093C95.8799 43.3165 95.9337 43.4509 95.9337 43.615C95.9337 43.7791 95.8799 43.9125 95.7723 44.015C95.6657 44.1188 95.526 44.17 95.3542 44.17ZM94.9682 45.2048H95.7608V50.4754H94.9682V45.2048Z" fill="#08068D"/>
  <path d="M99.3434 45.1191C100.115 45.1191 100.727 45.2832 101.177 45.6103C101.627 45.9374 101.853 46.4491 101.853 47.1465V50.4753H101.145C101.145 50.0058 101.152 49.657 101.167 49.4291H101.145C100.973 49.7778 100.699 50.0536 100.325 50.2565C99.9493 50.4593 99.5404 50.5607 99.0972 50.5607C98.5108 50.5607 98.0228 50.4137 97.6334 50.1174C97.2429 49.8223 97.0493 49.4075 97.0493 48.8741C97.0493 48.3408 97.2532 47.9123 97.6598 47.6103C98.0675 47.3083 98.5783 47.1567 99.1934 47.1567C99.9081 47.1567 100.53 47.3026 101.058 47.5944V47.1465C101.058 46.6986 100.901 46.3647 100.586 46.1436C100.271 45.9237 99.8428 45.8132 99.2999 45.8132C98.7845 45.8132 98.2382 45.9385 97.6586 46.1869L97.4445 45.5465C98.0813 45.2616 98.7135 45.1191 99.3423 45.1191M99.2243 49.8884C99.7179 49.8884 100.142 49.7425 100.494 49.4508C100.848 49.159 101.043 48.7681 101.079 48.277C100.557 47.9647 99.971 47.8075 99.3205 47.8075C98.8841 47.8075 98.5291 47.8998 98.2531 48.0844C97.9782 48.269 97.8407 48.5254 97.8407 48.8525C97.8407 49.1795 97.9736 49.4257 98.2428 49.6103C98.5108 49.7949 98.8383 49.8872 99.2232 49.8872" fill="#08068D"/>
</svg>