<svg width="21" height="19" viewBox="0 0 21 19" fill="none" xmlns="http://www.w3.org/2000/svg">
<path d="M13.3906 5.20654L12.4531 2.70654H7.57031L6.63281 5.20654H1.90625V16.4565H18.1562V5.20654H13.3906ZM12.6875 0.831543C13.3516 0.831543 13.8984 1.26123 14.1328 1.84717L14.7188 3.33154H18.1562C19.1719 3.33154 20.0312 4.19092 20.0312 5.20654V16.4565C20.0312 17.5112 19.1719 18.3315 18.1562 18.3315H1.90625C0.851562 18.3315 0.03125 17.5112 0.03125 16.4565V5.20654C0.03125 4.19092 0.851562 3.33154 1.90625 3.33154H5.34375L5.8125 2.08154C6.08594 1.33936 6.78906 0.831543 7.57031 0.831543H12.6875ZM10.0312 15.519C7.41406 15.519 5.34375 13.4487 5.34375 10.8315C5.34375 8.25342 7.41406 6.14404 10.0312 6.14404C12.6094 6.14404 14.7188 8.25342 14.7188 10.8315C14.7188 13.4487 12.6094 15.519 10.0312 15.519ZM10.0312 8.01904C8.46875 8.01904 7.21875 9.30811 7.21875 10.8315C7.21875 12.394 8.46875 13.644 10.0312 13.644C11.5547 13.644 12.8438 12.394 12.8438 10.8315C12.8438 9.30811 11.5547 8.01904 10.0312 8.01904Z" fill="white"/>
</svg>
