<svg width="11" height="15" viewBox="0 0 11 15" fill="none" xmlns="http://www.w3.org/2000/svg">
<path d="M10.0898 3.14062C10.3359 3.38672 10.5 3.74219 10.5 4.07031V13.1484C10.5 13.8867 9.89844 14.4609 9.1875 14.4609H1.3125C0.574219 14.4609 0 13.8867 0 13.1484V1.77344C0 1.0625 0.574219 0.460938 1.3125 0.460938H6.89062C7.21875 0.460938 7.57422 0.597656 7.82031 0.84375L10.0898 3.14062ZM9.48828 3.76953L7.19141 1.47266C7.13672 1.41797 7.05469 1.39062 7 1.36328V3.96094H9.59766C9.57031 3.90625 9.54297 3.82422 9.48828 3.76953ZM9.1875 13.5859C9.40625 13.5859 9.625 13.3945 9.625 13.1484V4.83594H6.78125C6.39844 4.83594 6.125 4.5625 6.125 4.17969V1.33594H1.3125C1.06641 1.33594 0.875 1.55469 0.875 1.77344V13.1484C0.875 13.3945 1.06641 13.5859 1.3125 13.5859H9.1875Z" fill="#08068D"/>
</svg>
