<svg width="16" height="19" viewBox="0 0 16 19" fill="none" xmlns="http://www.w3.org/2000/svg">
<path d="M10.4062 15.6484C10.2305 15.6484 10.125 15.543 10.125 15.3672V5.80469C10.125 5.66406 10.2305 5.52344 10.4062 5.52344H10.9688C11.1094 5.52344 11.25 5.66406 11.25 5.80469V15.3672C11.25 15.543 11.1094 15.6484 10.9688 15.6484H10.4062ZM4.78125 15.6484C4.60547 15.6484 4.5 15.543 4.5 15.3672V5.80469C4.5 5.66406 4.60547 5.52344 4.78125 5.52344H5.34375C5.48438 5.52344 5.625 5.66406 5.625 5.80469V15.3672C5.625 15.543 5.48438 15.6484 5.34375 15.6484H4.78125ZM15.4688 2.71094C15.6094 2.71094 15.75 2.85156 15.75 2.99219V3.55469C15.75 3.73047 15.6094 3.83594 15.4688 3.83594H14.625V16.7734C14.625 17.7227 13.8516 18.4609 12.9375 18.4609H2.8125C1.86328 18.4609 1.125 17.7227 1.125 16.7734V3.83594H0.28125C0.105469 3.83594 0 3.73047 0 3.55469V2.99219C0 2.85156 0.105469 2.71094 0.28125 2.71094H3.9375L5.09766 1.16406C5.37891 0.777344 5.97656 0.460938 6.46875 0.460938H9.28125C9.73828 0.460938 10.3359 0.777344 10.6172 1.16406L11.8125 2.71094H15.4688ZM6.01172 1.83203L5.34375 2.71094H10.4062L9.70312 1.83203C9.63281 1.69141 9.42188 1.62109 9.28125 1.58594H6.46875C6.29297 1.62109 6.08203 1.69141 6.01172 1.83203ZM13.5 16.7734V3.83594H2.25V16.7734C2.25 17.0898 2.49609 17.3359 2.8125 17.3359H12.9375C13.2188 17.3359 13.5 17.0898 13.5 16.7734ZM7.59375 15.6484C7.41797 15.6484 7.3125 15.543 7.3125 15.3672V5.80469C7.3125 5.66406 7.41797 5.52344 7.59375 5.52344H8.15625C8.29688 5.52344 8.4375 5.66406 8.4375 5.80469V15.3672C8.4375 15.543 8.29688 15.6484 8.15625 15.6484H7.59375Z" fill="#8699AC"/>
</svg>
